<?xml version="1.0" encoding="UTF-8"?>
<!DOCTYPE svg PUBLIC "-//W3C//DTD SVG 1.1//EN" "http://www.w3.org/Graphics/SVG/1.1/DTD/svg11.dtd">
<svg version="1.1" xmlns="http://www.w3.org/2000/svg" xmlns:xlink="http://www.w3.org/1999/xlink" x="0" y="0" width="420.36" height="210" viewBox="0, 0, 420.36, 210">
  <defs>
    <clipPath id="Clip_1">
      <path d="M242.568,164.956 L536.376,164.956 L536.376,288.092 L242.568,288.092 z M269.448,175.548 L248.568,175.548 L288.6,277.5 L304.296,277.5 L345.48,175.548 L325.896,175.548 L297.24,252.588 L269.448,175.548 z M488.184,191.1 Q498.552,191.1 503.232,194.34 Q507.912,197.58 507.912,204.204 Q507.912,209.964 503.376,213.492 Q498.84,217.02 489.768,217.02 L473.208,217.02 L473.208,191.1 L488.184,191.1 z M490.632,232.572 Q501.72,232.572 506.976,235.74 Q512.232,238.908 512.232,246.972 Q512.232,252.012 510.072,254.964 Q507.912,257.916 504.6,259.5 Q501.288,261.084 497.328,261.516 Q493.368,261.948 489.912,261.948 L473.208,261.948 L473.208,232.572 L490.632,232.572 z M494.808,175.548 L455.064,175.548 L455.064,277.5 L491.784,277.5 Q498.984,277.5 505.968,276.06 Q512.952,274.62 518.352,271.236 Q523.752,267.852 527.064,262.308 Q530.376,256.764 530.376,248.412 Q530.376,243.516 528.72,239.268 Q527.064,235.02 524.184,231.78 Q521.304,228.54 517.2,226.452 Q513.096,224.364 508.344,223.788 L508.344,223.5 Q516.264,221.052 521.16,215.436 Q526.056,209.82 526.056,201.18 Q526.056,194.268 523.32,189.372 Q520.584,184.476 516.192,181.38 Q511.8,178.284 506.184,176.916 Q500.568,175.548 494.808,175.548 z M404.808,172.956 Q393,172.956 383.136,176.772 Q373.272,180.588 366.144,187.644 Q359.016,194.7 354.984,204.708 Q350.952,214.716 350.952,226.956 Q350.952,238.908 354.984,248.7 Q359.016,258.492 366.144,265.476 Q373.272,272.46 383.136,276.276 Q393,280.092 404.808,280.092 Q416.04,280.092 425.976,275.772 Q435.912,271.452 442.824,261.948 L427.848,251.292 Q422.808,257.772 416.976,260.724 Q411.144,263.676 404.952,263.676 Q397.032,263.676 390.624,260.796 Q384.216,257.916 379.608,252.876 Q375,247.836 372.48,240.924 Q369.96,234.012 369.96,225.804 Q369.96,218.172 372.48,211.548 Q375,204.924 379.608,199.956 Q384.216,194.988 390.624,192.18 Q397.032,189.372 404.952,189.372 Q410.28,189.372 415.536,191.388 Q420.792,193.404 426.408,199.452 L440.52,189.084 Q432.888,180.3 424.032,176.628 Q415.176,172.956 404.808,172.956 z"/>
    </clipPath>
    <filter id="Shadow_2">
      <feGaussianBlur in="SourceAlpha" stdDeviation="2.5"/>
      <feOffset dx="0" dy="2" result="offsetblur"/>
      <feFlood flood-color="#000000"/>
      <feComposite in2="offsetblur" operator="in"/>
    </filter>
    <clipPath id="Clip_3">
      <path d="M538.232,217.228 L660.32,217.228 L660.32,286.796 L538.232,286.796 z M597.872,226.524 L588.8,226.524 L588.8,277.5 L597.872,277.5 L597.872,226.524 z M564.68,225.228 Q561.152,225.228 557.768,226.164 Q554.384,227.1 551.756,229.008 Q549.128,230.916 547.508,233.796 Q545.888,236.676 545.888,240.636 Q545.888,245.172 547.688,247.872 Q549.488,250.572 552.152,252.192 Q554.816,253.812 557.984,254.748 Q561.152,255.684 563.816,256.728 Q566.48,257.772 568.28,259.284 Q570.08,260.796 570.08,263.604 Q570.08,265.332 569.288,266.664 Q568.496,267.996 567.2,268.86 Q565.904,269.724 564.32,270.156 Q562.736,270.588 561.152,270.588 Q558.128,270.588 555.428,269.184 Q552.728,267.78 551.072,265.26 L544.232,271.884 Q547.4,275.628 551.792,277.212 Q556.184,278.796 560.936,278.796 Q564.68,278.796 568.064,277.788 Q571.448,276.78 574.004,274.764 Q576.56,272.748 578.072,269.688 Q579.584,266.628 579.584,262.524 Q579.584,257.988 577.784,255.252 Q575.984,252.516 573.32,250.86 Q570.656,249.204 567.488,248.268 Q564.32,247.332 561.656,246.324 Q558.992,245.316 557.192,243.948 Q555.392,242.58 555.392,239.988 Q555.392,238.26 556.112,237 Q556.832,235.74 558.02,234.948 Q559.208,234.156 560.684,233.796 Q562.16,233.436 563.744,233.436 Q566.408,233.436 568.82,234.408 Q571.232,235.38 572.672,237.468 L579.296,230.484 Q576.272,227.676 572.492,226.452 Q568.712,225.228 564.68,225.228 z M633.224,225.228 Q627.32,225.228 622.388,227.136 Q617.456,229.044 613.892,232.572 Q610.328,236.1 608.312,241.104 Q606.296,246.108 606.296,252.228 Q606.296,258.204 608.312,263.1 Q610.328,267.996 613.892,271.488 Q617.456,274.98 622.388,276.888 Q627.32,278.796 633.224,278.796 Q644.888,278.796 654.32,273.756 L654.32,247.692 L634.808,247.692 L634.808,255.9 L645.248,255.9 L645.248,267.924 Q642.872,269.292 639.812,269.94 Q636.752,270.588 633.296,270.588 Q629.336,270.588 626.132,269.148 Q622.928,267.708 620.624,265.188 Q618.32,262.668 617.06,259.212 Q615.8,255.756 615.8,251.652 Q615.8,247.836 617.06,244.524 Q618.32,241.212 620.624,238.728 Q622.928,236.244 626.132,234.84 Q629.336,233.436 633.296,233.436 Q637.184,233.436 640.676,234.732 Q644.168,236.028 646.616,238.404 L653.312,231.636 Q649.28,228.036 644.168,226.632 Q639.056,225.228 633.224,225.228 z"/>
    </clipPath>
    <filter id="Shadow_4">
      <feGaussianBlur in="SourceAlpha" stdDeviation="2.5"/>
      <feOffset dx="0" dy="2" result="offsetblur"/>
      <feFlood flood-color="#000000"/>
      <feComposite in2="offsetblur" operator="in"/>
    </filter>
  </defs>
  <g id="Layer_1" transform="translate(-244, -128.5)">
    <g opacity="0.86">
      <path d="M404.808,172.956 Q415.176,172.956 424.032,176.628 Q432.888,180.3 440.52,189.084 L426.408,199.452 Q420.792,193.404 415.536,191.388 Q410.28,189.372 404.952,189.372 Q397.032,189.372 390.624,192.18 Q384.216,194.988 379.608,199.956 Q375,204.924 372.48,211.548 Q369.96,218.172 369.96,225.804 Q369.96,234.012 372.48,240.924 Q375,247.836 379.608,252.876 Q384.216,257.916 390.624,260.796 Q397.032,263.676 404.952,263.676 Q411.144,263.676 416.976,260.724 Q422.808,257.772 427.848,251.292 L442.824,261.948 Q435.912,271.452 425.976,275.772 Q416.04,280.092 404.808,280.092 Q393,280.092 383.136,276.276 Q373.272,272.46 366.144,265.476 Q359.016,258.492 354.984,248.7 Q350.952,238.908 350.952,226.956 Q350.952,214.716 354.984,204.708 Q359.016,194.7 366.144,187.644 Q373.272,180.588 383.136,176.772 Q393,172.956 404.808,172.956 z M494.808,175.548 Q500.568,175.548 506.184,176.916 Q511.8,178.284 516.192,181.38 Q520.584,184.476 523.32,189.372 Q526.056,194.268 526.056,201.18 Q526.056,209.82 521.16,215.436 Q516.264,221.052 508.344,223.5 L508.344,223.788 Q513.096,224.364 517.2,226.452 Q521.304,228.54 524.184,231.78 Q527.064,235.02 528.72,239.268 Q530.376,243.516 530.376,248.412 Q530.376,256.764 527.064,262.308 Q523.752,267.852 518.352,271.236 Q512.952,274.62 505.968,276.06 Q498.984,277.5 491.784,277.5 L455.064,277.5 L455.064,175.548 L494.808,175.548 z M490.632,232.572 L473.208,232.572 L473.208,261.948 L489.912,261.948 Q493.368,261.948 497.328,261.516 Q501.288,261.084 504.6,259.5 Q507.912,257.916 510.072,254.964 Q512.232,252.012 512.232,246.972 Q512.232,238.908 506.976,235.74 Q501.72,232.572 490.632,232.572 z M488.184,191.1 L473.208,191.1 L473.208,217.02 L489.768,217.02 Q498.84,217.02 503.376,213.492 Q507.912,209.964 507.912,204.204 Q507.912,197.58 503.232,194.34 Q498.552,191.1 488.184,191.1 z M269.448,175.548 L297.24,252.588 L325.896,175.548 L345.48,175.548 L304.296,277.5 L288.6,277.5 L248.568,175.548 L269.448,175.548 z" clip-path="url(#Clip_1)" filter="url(#Shadow_2)" fill="rgba(0,0,0,0.75)"/>
      <text transform="matrix(1, 0, 0, 1, 393, 232.5)">
        <tspan x="-144" y="45" font-family="Avenir-Heavy" font-size="144" fill="#4928CF">VCB</tspan>
      </text>
    </g>
    <g opacity="0.8">
      <path d="M633.224,225.228 Q639.056,225.228 644.168,226.632 Q649.28,228.036 653.312,231.636 L646.616,238.404 Q644.168,236.028 640.676,234.732 Q637.184,233.436 633.296,233.436 Q629.336,233.436 626.132,234.84 Q622.928,236.244 620.624,238.728 Q618.32,241.212 617.06,244.524 Q615.8,247.836 615.8,251.652 Q615.8,255.756 617.06,259.212 Q618.32,262.668 620.624,265.188 Q622.928,267.708 626.132,269.148 Q629.336,270.588 633.296,270.588 Q636.752,270.588 639.812,269.94 Q642.872,269.292 645.248,267.924 L645.248,255.9 L634.808,255.9 L634.808,247.692 L654.32,247.692 L654.32,273.756 Q644.888,278.796 633.224,278.796 Q627.32,278.796 622.388,276.888 Q617.456,274.98 613.892,271.488 Q610.328,267.996 608.312,263.1 Q606.296,258.204 606.296,252.228 Q606.296,246.108 608.312,241.104 Q610.328,236.1 613.892,232.572 Q617.456,229.044 622.388,227.136 Q627.32,225.228 633.224,225.228 z M564.68,225.228 Q568.712,225.228 572.492,226.452 Q576.272,227.676 579.296,230.484 L572.672,237.468 Q571.232,235.38 568.82,234.408 Q566.408,233.436 563.744,233.436 Q562.16,233.436 560.684,233.796 Q559.208,234.156 558.02,234.948 Q556.832,235.74 556.112,237 Q555.392,238.26 555.392,239.988 Q555.392,242.58 557.192,243.948 Q558.992,245.316 561.656,246.324 Q564.32,247.332 567.488,248.268 Q570.656,249.204 573.32,250.86 Q575.984,252.516 577.784,255.252 Q579.584,257.988 579.584,262.524 Q579.584,266.628 578.072,269.688 Q576.56,272.748 574.004,274.764 Q571.448,276.78 568.064,277.788 Q564.68,278.796 560.936,278.796 Q556.184,278.796 551.792,277.212 Q547.4,275.628 544.232,271.884 L551.072,265.26 Q552.728,267.78 555.428,269.184 Q558.128,270.588 561.152,270.588 Q562.736,270.588 564.32,270.156 Q565.904,269.724 567.2,268.86 Q568.496,267.996 569.288,266.664 Q570.08,265.332 570.08,263.604 Q570.08,260.796 568.28,259.284 Q566.48,257.772 563.816,256.728 Q561.152,255.684 557.984,254.748 Q554.816,253.812 552.152,252.192 Q549.488,250.572 547.688,247.872 Q545.888,245.172 545.888,240.636 Q545.888,236.676 547.508,233.796 Q549.128,230.916 551.756,229.008 Q554.384,227.1 557.768,226.164 Q561.152,225.228 564.68,225.228 z M597.872,226.524 L597.872,277.5 L588.8,277.5 L588.8,226.524 L597.872,226.524 z" clip-path="url(#Clip_3)" filter="url(#Shadow_4)" fill="rgba(0,0,0,0.75)"/>
      <text transform="matrix(1, 0, 0, 1, 600.68, 255.5)">
        <tspan x="-58.68" y="22" font-family="Avenir-Heavy" font-size="72" fill="#B8B8B8">SIG</tspan>
      </text>
    </g>
  </g>
</svg>
